<svg width="20" height="21" viewBox="0 0 20 21" fill="none" xmlns="http://www.w3.org/2000/svg">
<path opacity="0.4" d="M5.83398 14.7754L5.83398 11.442" stroke="#141B34" stroke-width="1.5" stroke-linecap="round"/>
<path opacity="0.4" d="M10 14.7754L10 6.44205" stroke="#141B34" stroke-width="1.5" stroke-linecap="round"/>
<path opacity="0.4" d="M14.168 14.7754L14.168 9.77539" stroke="#141B34" stroke-width="1.5" stroke-linecap="round"/>
<path d="M2.08398 10.6087C2.08398 6.87676 2.08398 5.01078 3.24335 3.85142C4.40272 2.69205 6.2687 2.69205 10.0007 2.69205C13.7326 2.69205 15.5986 2.69205 16.7579 3.85142C17.9173 5.01078 17.9173 6.87676 17.9173 10.6087C17.9173 14.3407 17.9173 16.2066 16.7579 17.366C15.5986 18.5254 13.7326 18.5254 10.0007 18.5254C6.2687 18.5254 4.40272 18.5254 3.24335 17.366C2.08398 16.2066 2.08398 14.3407 2.08398 10.6087Z" stroke="#667085" stroke-width="1.5" stroke-linejoin="round"/>
</svg>
