<svg width="21" height="20" viewBox="0 0 21 20" fill="none" xmlns="http://www.w3.org/2000/svg">
<path d="M14.7591 10.0523C14.7802 12.3223 16.7505 13.0777 16.7723 13.0873C16.7557 13.1405 16.4575 14.1638 15.7343 15.2207C15.1091 16.1345 14.4602 17.0449 13.4381 17.0637C12.4337 17.0822 12.1107 16.4682 10.9624 16.4682C9.8145 16.4682 9.45568 17.0449 8.50492 17.0823C7.51828 17.1196 6.76693 16.0942 6.13657 15.1837C4.84845 13.3214 3.86405 9.92133 5.18584 7.62621C5.84248 6.48644 7.01594 5.76469 8.28963 5.74618C9.25849 5.7277 10.173 6.398 10.7653 6.398C11.3572 6.398 12.4685 5.59191 13.6367 5.71029C14.1258 5.73065 15.4987 5.90785 16.3802 7.1982C16.3091 7.24223 14.7421 8.1545 14.7591 10.0523ZM12.8715 4.47823C13.3953 3.84417 13.7479 2.9615 13.6517 2.08325C12.8967 2.1136 11.9837 2.58639 11.4421 3.2201C10.9567 3.78128 10.5317 4.67948 10.6464 5.54035C11.4879 5.60546 12.3477 5.11269 12.8715 4.47823Z" fill="black"/>
</svg>
