<svg width="20" height="21" viewBox="0 0 20 21" fill="none" xmlns="http://www.w3.org/2000/svg">
<path d="M9.16602 8.1087H16.6616C17.0749 8.1087 17.2816 8.1087 17.4029 8.24227C17.5242 8.37583 17.5084 8.58587 17.4767 9.00595L16.9592 15.8644C16.849 17.3244 16.7939 18.0544 16.3238 18.4982C15.8537 18.942 15.1355 18.942 13.699 18.942H9.94547C8.50902 18.942 7.79079 18.942 7.32067 18.4982C6.62115 17.8379 6.73326 16.4998 6.66602 15.6087" stroke="#667085" stroke-width="1.5" stroke-linecap="round" stroke-linejoin="round"/>
<path d="M9.16667 8.03294V12.5784C9.16667 14.0069 9.16667 14.7211 8.67851 15.1649C8.19036 15.6087 7.40468 15.6087 5.83333 15.6087C4.26199 15.6087 3.47631 15.6087 2.98816 15.1649C2.5 14.7211 2.5 14.0069 2.5 12.5784V11.8208C2.5 9.67807 2.5 8.60669 3.23223 7.94103C3.96447 7.27536 5.14298 7.27536 7.5 7.27536H8.33333C8.72617 7.27536 8.92259 7.27536 9.04463 7.3863C9.16667 7.49725 9.16667 7.67581 9.16667 8.03294Z" stroke="#667085" stroke-width="1.5" stroke-linecap="round" stroke-linejoin="round"/>
<path opacity="0.4" d="M15.8333 8.10869C15.8333 4.88703 13.9584 2.27536 11.6455 2.27536C9.53569 2.27536 7.7903 4.44845 7.5 7.27536" stroke="#667085" stroke-width="1.5" stroke-linecap="round" stroke-linejoin="round"/>
<path opacity="0.4" d="M2.5 12.2754H9.16667" stroke="#667085" stroke-width="1.5" stroke-linecap="round" stroke-linejoin="round"/>
<path d="M9.16602 11.442H16.666" stroke="#667085" stroke-width="1.5" stroke-linecap="round" stroke-linejoin="round"/>
</svg>
