<svg width="20" height="20" viewBox="0 0 20 20" fill="none" xmlns="http://www.w3.org/2000/svg">
<path d="M10.1523 8.63647V11.541H14.2711C14.0902 12.4751 13.5475 13.2661 12.7335 13.7979L15.2173 15.6866C16.6644 14.3775 17.4993 12.4547 17.4993 10.1706C17.4993 9.63884 17.4506 9.12742 17.3601 8.63656L10.1523 8.63647Z" fill="#4285F4"/>
<path d="M3.32091 6.63879C2.79914 7.64785 2.5 8.78651 2.5 10.0001C2.5 11.2138 2.79914 12.3524 3.32091 13.3615C3.32091 13.3682 5.86735 11.4251 5.86735 11.4251C5.71429 10.9751 5.62382 10.4978 5.62382 10.0001C5.62382 9.50226 5.71429 9.02501 5.86735 8.57501L3.32091 6.63879Z" fill="#FBBC05"/>
<path d="M10.1524 5.48638C11.2795 5.48638 12.2813 5.86819 13.0814 6.60457L15.273 4.45685C13.9441 3.24323 12.2188 2.5 10.1524 2.5C7.16074 2.5 4.57959 4.1841 3.32031 6.63866L5.86667 8.57504C6.47193 6.80228 8.16259 5.48638 10.1524 5.48638Z" fill="#EA4335"/>
<path d="M5.86338 11.4276L5.3032 11.8479L3.32031 13.3615C4.57959 15.8092 7.16058 17.5001 10.1522 17.5001C12.2185 17.5001 13.9509 16.8319 15.2171 15.6865L12.7334 13.7978C12.0516 14.2478 11.1819 14.5206 10.1522 14.5206C8.16243 14.5206 6.47184 13.2047 5.86651 11.4319L5.86338 11.4276Z" fill="#34A853"/>
</svg>
