<svg width="20" height="21" viewBox="0 0 20 21" fill="none" xmlns="http://www.w3.org/2000/svg">
<path d="M10 4.6087C8.4087 4.6087 6.88258 5.24084 5.75736 6.36606C4.63214 7.49128 4 9.0174 4 10.6087H6.25C6.64782 10.6087 7.02936 10.7667 7.31066 11.048C7.59196 11.3293 7.75 11.7109 7.75 12.1087V15.8587C7.75 16.2565 7.59196 16.6381 7.31066 16.9194C7.02936 17.2007 6.64782 17.3587 6.25 17.3587H4C3.60218 17.3587 3.22064 17.2007 2.93934 16.9194C2.65804 16.6381 2.5 16.2565 2.5 15.8587V10.6087C2.5 6.46645 5.85775 3.1087 10 3.1087C14.1423 3.1087 17.5 6.46645 17.5 10.6087V15.8587C17.5 16.2565 17.342 16.6381 17.0607 16.9194C16.7794 17.2007 16.3978 17.3587 16 17.3587H13.75C13.3522 17.3587 12.9706 17.2007 12.6893 16.9194C12.408 16.6381 12.25 16.2565 12.25 15.8587V12.1087C12.25 11.7109 12.408 11.3293 12.6893 11.048C12.9706 10.7667 13.3522 10.6087 13.75 10.6087H16C16 9.0174 15.3679 7.49128 14.2426 6.36606C13.1174 5.24084 11.5913 4.6087 10 4.6087ZM4 12.1087V15.8587H6.25V12.1087H4ZM13.75 12.1087V15.8587H16V12.1087H13.75Z" fill="#525866"/>
</svg>
