<svg width="20" height="21" viewBox="0 0 20 21" fill="none" xmlns="http://www.w3.org/2000/svg">
<path d="M2.10892 12.6037C1.93171 13.7313 2.72398 14.5139 3.69403 14.9039C7.41299 16.3992 12.5883 16.3992 16.3073 14.9039C17.2773 14.5139 18.0696 13.7313 17.8924 12.6037C17.7835 11.9108 17.245 11.3338 16.846 10.7704C16.3234 10.0233 16.2715 9.20846 16.2714 8.34154C16.2714 4.99128 13.4639 2.27536 10.0007 2.27536C6.53742 2.27536 3.72992 4.99128 3.72992 8.34154C3.72985 9.20846 3.67792 10.0233 3.15532 10.7704C2.75635 11.3338 2.21783 11.9108 2.10892 12.6037Z" stroke="#667085" stroke-width="1.5" stroke-linecap="round" stroke-linejoin="round"/>
<path opacity="0.4" d="M7.5 18.1087C8.16345 18.6269 9.03956 18.942 10 18.942C10.9604 18.942 11.8366 18.6269 12.5 18.1087" stroke="#141B34" stroke-width="1.5" stroke-linecap="round" stroke-linejoin="round"/>
</svg>
