<svg width="20" height="21" viewBox="0 0 20 21" fill="none" xmlns="http://www.w3.org/2000/svg">
<path d="M7.51356 4.60868L9.46881 2.65343C9.60945 2.51282 9.80018 2.43384 9.99906 2.43384C10.1979 2.43384 10.3887 2.51282 10.5293 2.65343L12.4846 4.60868H15.2491C15.448 4.60868 15.6387 4.6877 15.7794 4.82835C15.92 4.969 15.9991 5.15977 15.9991 5.35868V8.12318L17.9543 10.0784C18.0949 10.2191 18.1739 10.4098 18.1739 10.6087C18.1739 10.8075 18.0949 10.9983 17.9543 11.1389L15.9991 13.0942V15.8587C15.9991 16.0576 15.92 16.2484 15.7794 16.389C15.6387 16.5297 15.448 16.6087 15.2491 16.6087H12.4846L10.5293 18.5639C10.3887 18.7045 10.1979 18.7835 9.99906 18.7835C9.80018 18.7835 9.60945 18.7045 9.46881 18.5639L7.51356 16.6087H4.74906C4.55015 16.6087 4.35938 16.5297 4.21873 16.389C4.07808 16.2484 3.99906 16.0576 3.99906 15.8587V13.0942L2.04381 11.1389C1.90321 10.9983 1.82422 10.8075 1.82422 10.6087C1.82422 10.4098 1.90321 10.2191 2.04381 10.0784L3.99906 8.12318V5.35868C3.99906 5.15977 4.07808 4.969 4.21873 4.82835C4.35938 4.6877 4.55015 4.60868 4.74906 4.60868H7.51356ZM5.49906 6.10868V8.74493L3.63531 10.6087L5.49906 12.4724V15.1087H8.13531L9.99906 16.9724L11.8628 15.1087H14.4991V12.4724L16.3628 10.6087L14.4991 8.74493V6.10868H11.8628L9.99906 4.24493L8.13531 6.10868H5.49906ZM9.99906 13.6087C9.20341 13.6087 8.44035 13.2926 7.87774 12.73C7.31513 12.1674 6.99906 11.4043 6.99906 10.6087C6.99906 9.81303 7.31513 9.04997 7.87774 8.48736C8.44035 7.92475 9.20341 7.60868 9.99906 7.60868C10.7947 7.60868 11.5578 7.92475 12.1204 8.48736C12.683 9.04997 12.9991 9.81303 12.9991 10.6087C12.9991 11.4043 12.683 12.1674 12.1204 12.73C11.5578 13.2926 10.7947 13.6087 9.99906 13.6087ZM9.99906 12.1087C10.3969 12.1087 10.7784 11.9506 11.0597 11.6693C11.341 11.388 11.4991 11.0065 11.4991 10.6087C11.4991 10.2109 11.341 9.82932 11.0597 9.54802C10.7784 9.26671 10.3969 9.10868 9.99906 9.10868C9.60123 9.10868 9.2197 9.26671 8.9384 9.54802C8.65709 9.82932 8.49906 10.2109 8.49906 10.6087C8.49906 11.0065 8.65709 11.388 8.9384 11.6693C9.2197 11.9506 9.60123 12.1087 9.99906 12.1087Z" fill="#525866"/>
</svg>
