<svg width="20" height="21" viewBox="0 0 20 21" fill="none" xmlns="http://www.w3.org/2000/svg">
<path opacity="0.4" d="M10.6762 7.27539C10.6762 6.86118 10.3404 6.52539 9.92623 6.52539C9.51202 6.52539 9.17623 6.86118 9.17623 7.27539L10.6762 7.27539ZM9.17623 13.9421C9.17623 14.3563 9.51202 14.6921 9.92623 14.6921C10.3404 14.6921 10.6762 14.3563 10.6762 13.9421H9.17623ZM10.6932 9.1193C10.9225 9.4642 11.3881 9.55784 11.733 9.32845C12.0779 9.09907 12.1715 8.63352 11.9421 8.28862L10.6932 9.1193ZM9.07417 12.1426C8.7846 11.8464 8.30975 11.8411 8.01357 12.1306C7.7174 12.4202 7.71204 12.895 8.00161 13.1912L9.07417 12.1426ZM9.92623 9.76285C9.40802 9.76285 9.21069 9.66613 9.15188 9.62085C9.13727 9.60961 9.08203 9.57793 9.08203 9.36058H7.58203C7.58203 9.88568 7.74418 10.4301 8.23682 10.8094C8.68525 11.1546 9.28503 11.2628 9.92623 11.2628L9.92623 9.76285ZM9.08203 9.36058C9.08203 9.1471 9.33507 8.76628 9.92623 8.76628V7.26628C8.75649 7.26628 7.58203 8.08918 7.58203 9.36058H9.08203ZM10.9154 11.8572C10.9154 12.1008 10.8338 12.2009 10.7315 12.2711C10.5887 12.3691 10.3243 12.4515 9.92623 12.4515V13.9515C10.4887 13.9515 11.0938 13.8418 11.5805 13.5077C12.1076 13.1458 12.4154 12.5737 12.4154 11.8572L10.9154 11.8572ZM9.92623 11.2628C10.4517 11.2628 10.6875 11.3555 10.7824 11.4263C10.8283 11.4605 10.9154 11.5373 10.9154 11.8572L12.4154 11.8572C12.4154 11.2168 12.2126 10.6214 11.6788 10.2236C11.194 9.8622 10.5602 9.76285 9.92623 9.76285L9.92623 11.2628ZM10.6762 8.01628L10.6762 7.27539L9.17623 7.27539L9.17623 8.01628L10.6762 8.01628ZM9.17623 13.2015V13.9421H10.6762L10.6762 13.2015H9.17623ZM9.92623 8.76628C10.3014 8.76628 10.5744 8.94068 10.6932 9.1193L11.9421 8.28862C11.5151 7.64652 10.7464 7.26628 9.92623 7.26628V8.76628ZM9.92623 12.4515C9.53472 12.4515 9.2332 12.3053 9.07417 12.1426L8.00161 13.1912C8.47753 13.678 9.18347 13.9515 9.92623 13.9515V12.4515Z" fill="#667085"/>
<path d="M3.81495 7.78121L1.66536 7.65386C3.2062 3.69612 7.63006 1.44193 11.9432 2.5627C16.5371 3.75641 19.2658 8.32666 18.0379 12.7707C17.0223 16.4463 13.6181 18.8843 9.87198 18.9421" stroke="#667085" stroke-width="1.5" stroke-linecap="round" stroke-linejoin="round"/>
<path opacity="0.4" d="M9.99935 18.9421C5.41602 18.9421 1.66602 14.7754 1.66602 9.77539" stroke="#667085" stroke-width="1.5" stroke-linecap="round" stroke-linejoin="round" stroke-dasharray="0.5 3"/>
</svg>
