<svg width="20" height="21" viewBox="0 0 20 21" fill="none" xmlns="http://www.w3.org/2000/svg">
<path d="M5.48131 13.51C4.30234 14.212 1.21114 15.6455 3.09388 17.4392C4.01359 18.3154 5.03791 18.942 6.32572 18.942H13.6743C14.9621 18.942 15.9864 18.3154 16.9061 17.4392C18.7889 15.6455 15.6977 14.212 14.5187 13.51C11.754 11.8638 8.24599 11.8638 5.48131 13.51Z" stroke="#667085" stroke-width="1.5" stroke-linecap="round" stroke-linejoin="round"/>
<path opacity="0.4" d="M13.75 6.02536C13.75 8.09643 12.0711 9.77536 10 9.77536C7.92893 9.77536 6.25 8.09643 6.25 6.02536C6.25 3.95429 7.92893 2.27536 10 2.27536C12.0711 2.27536 13.75 3.95429 13.75 6.02536Z" stroke="#667085" stroke-width="1.5"/>
</svg>
