<svg width="121" height="53" viewBox="0 0 121 53" fill="none" xmlns="http://www.w3.org/2000/svg">
<path d="M65.6482 13.4533C73.9342 13.4533 79.2646 19.5754 79.2646 27.0169C79.2646 34.5112 74.1453 40.5805 65.701 40.5805C57.2567 40.5805 52.1902 34.5112 52.1902 27.0169C52.1902 19.5754 57.3623 13.4533 65.6482 13.4533ZM65.701 19.3115C61.0567 19.3115 58.6289 23.1115 58.6289 27.0169C58.6289 30.9752 61.0039 34.6696 65.701 34.6696C70.3981 34.6696 72.7731 30.9752 72.7731 27.0169C72.7731 23.1115 70.0287 19.3115 65.701 19.3115ZM81.0706 3.10909H87.4565V40H81.0706V3.10909ZM110.865 17.5699L111.076 13.9811H117.251V40H111.182L110.865 36.2001C109.387 39.2611 105.324 40.7389 102.421 40.7917C94.7154 40.8444 89.0155 36.0945 89.0155 26.9642C89.0155 17.9921 94.9793 13.295 102.579 13.3478C106.062 13.3478 109.387 14.9838 110.865 17.5699ZM103.16 19.1004C98.8848 19.1004 95.4543 22.0031 95.4543 26.9642C95.4543 31.9252 98.8848 34.8807 103.16 34.8807C113.293 34.8807 113.293 19.1004 103.16 19.1004Z" fill="#0D0D0D"/>
<rect y="5.04865" width="42.5114" height="42.5114" rx="8.50229" fill="#101828"/>
<path d="M28.6523 28.9744L27.6441 29.0122C27.6701 26.0145 27.7511 19.9047 27.6845 19.011C27.6178 18.1173 27.2036 17.2494 27.1276 17.0679C26.7816 16.4446 26.0534 15.418 24.9267 15.1725C23.5183 14.8656 22.211 15.4125 21.5396 15.9494C21.0025 16.3789 20.6755 17.2495 20.6425 17.4767L19.8308 21.6563L22.293 22.0344C22.3642 20.9805 22.5344 19.2453 22.7423 18.5183C22.9502 17.7914 23.695 17.7358 23.695 17.7358C23.695 17.7358 24.2416 17.6351 24.6854 17.9615C25.0552 18.2335 25.1589 18.7875 25.1867 19.1598L25.2096 29.0065L24.138 29.1988L26.2955 32.5204L28.6523 28.9744Z" fill="url(#paint0_linear_1138_23189)"/>
<path d="M13.8555 21.2295L14.8638 21.1918C14.8377 24.1894 14.7567 30.2992 14.8233 31.1929C14.89 32.0867 15.3042 32.9545 15.3802 33.136C15.7262 33.7593 16.4544 34.7859 17.5811 35.0314C18.9895 35.3383 20.2968 34.7914 20.9682 34.2546C21.5054 33.8251 21.8323 32.9544 21.8653 32.7272L22.677 28.5476L20.2148 28.1696C20.1436 29.2234 19.9735 30.9586 19.7655 31.6856C19.5576 32.4126 18.8129 32.4681 18.8129 32.4681C18.8129 32.4681 18.2662 32.5688 17.8224 32.2424C17.4526 31.9704 17.3489 31.4165 17.3211 31.0441L17.2982 21.1974L18.3698 21.0052L16.2123 17.6836L13.8555 21.2295Z" fill="url(#paint1_linear_1138_23189)"/>
<rect x="23.873" y="22.7926" width="5" height="5.82256" transform="rotate(-167.088 23.873 22.7926)" fill="url(#paint2_linear_1138_23189)"/>
<rect x="18.6328" y="27.4113" width="5" height="5.82256" transform="rotate(12.9122 18.6328 27.4113)" fill="url(#paint3_linear_1138_23189)"/>
<defs>
<linearGradient id="paint0_linear_1138_23189" x1="32.4155" y1="29.7011" x2="16.4226" y2="26.8389" gradientUnits="userSpaceOnUse">
<stop stop-color="#0BFC92"/>
<stop offset="1" stop-color="#065D86"/>
</linearGradient>
<linearGradient id="paint1_linear_1138_23189" x1="10.0923" y1="20.5029" x2="26.0853" y2="23.365" gradientUnits="userSpaceOnUse">
<stop stop-color="#0BFC92"/>
<stop offset="1" stop-color="#065D86"/>
</linearGradient>
<linearGradient id="paint2_linear_1138_23189" x1="26.373" y1="22.7926" x2="26.373" y2="28.6152" gradientUnits="userSpaceOnUse">
<stop stop-color="#101828"/>
<stop offset="1" stop-color="#101828" stop-opacity="0"/>
</linearGradient>
<linearGradient id="paint3_linear_1138_23189" x1="21.1328" y1="27.4113" x2="21.1328" y2="33.2339" gradientUnits="userSpaceOnUse">
<stop stop-color="#101828"/>
<stop offset="1" stop-color="#101828" stop-opacity="0"/>
</linearGradient>
</defs>
</svg>
